<?xml version="1.0" encoding="UTF-8"?>
<svg width="26px" height="26px" viewBox="0 0 26 26" version="1.1" xmlns="http://www.w3.org/2000/svg" xmlns:xlink="http://www.w3.org/1999/xlink">
    <!-- Generator: Sketch 50 (54983) - http://www.bohemiancoding.com/sketch -->
    <title>btn /delete</title>
    <desc>Created with Sketch.</desc>
    <defs></defs>
    <g id="btn-/delete" stroke="none" stroke-width="1" fill="none" fill-rule="evenodd">
        <circle id="Oval" fill="#FFFFFF" cx="13" cy="13" r="9"></circle>
        <path d="M23.3910501,6.97643968 C22.3179426,5.13802351 20.8623407,3.68242827 19.0238614,2.60938034 C17.1850538,1.53638714 15.1777385,1 13.0003831,1 C10.8232467,1 8.81532933,1.53638714 6.97685004,2.60938034 C5.13826129,3.68226409 3.68265942,5.13785932 2.60955187,6.97643968 C1.53638959,8.8151295 1,10.8230377 1,13 C1,15.1770718 1.53655377,17.1846516 2.60938768,19.0234509 C3.68244051,20.861867 5.13804238,22.3174623 6.97663112,23.3906197 C8.81532933,24.4635581 10.8230825,25 13.0001642,25 C15.1772459,25 17.185218,24.4635581 19.0238067,23.3906197 C20.862286,22.3178454 22.3178331,20.861867 23.3908312,19.0234509 C24.4636651,17.1848158 25,15.1769623 25,13 C25.0000547,10.8228188 24.4636651,8.81485586 23.3910501,6.97643968 Z M18.6564173,15.8278948 C18.8543687,16.0256263 18.9534812,16.260518 18.9534812,16.5313659 C18.9534812,16.8122837 18.8543687,17.0520461 18.6564173,17.2497777 L17.2502896,18.6563368 C17.0525024,18.8540683 16.8127936,18.9529615 16.5314367,18.9529615 C16.2606423,18.9529615 16.0259685,18.8540683 15.8283455,18.6563368 L13.0002189,15.8278948 L10.1719829,18.6563368 C9.97408627,18.8540683 9.73974077,18.9529615 9.46889167,18.9529615 C9.1875895,18.9529615 8.94804484,18.8540683 8.75009349,18.6563368 L7.34374686,17.2497777 C7.14585025,17.0520461 7.04690194,16.8122837 7.04690194,16.5313659 C7.04690194,16.2605727 7.14590497,16.025681 7.34374686,15.8278948 L10.1719829,12.9999453 L7.34374686,10.1717221 C7.14585025,9.97404534 7.04690194,9.739482 7.04690194,9.46863413 C7.04690194,9.18733325 7.14590497,8.94778968 7.34374686,8.74983924 L8.75009349,7.34371793 C8.94804484,7.14582222 9.1875895,7.04687436 9.46889167,7.04687436 C9.73974077,7.04687436 9.97408627,7.14587694 10.1719829,7.34371793 L13.0002189,10.1717221 L15.8283455,7.34371793 C16.0259137,7.14582222 16.2605876,7.04687436 16.5314367,7.04687436 C16.8127936,7.04687436 17.0525024,7.14587694 17.2502896,7.34371793 L18.6564173,8.74983924 C18.8543687,8.94778968 18.9534812,9.18733325 18.9534812,9.46863413 C18.9534812,9.73942727 18.8543687,9.97404534 18.6564173,10.1717221 L15.8283455,12.9999453 L18.6564173,15.8278948 Z" id="Shape" stroke="#D71919" stroke-width="1.5" fill="#D71919" fill-rule="nonzero"></path>
    </g>
</svg>