<?xml version="1.0" encoding="UTF-8"?>
<svg width="20px" height="20px" viewBox="0 0 20 20" version="1.1" xmlns="http://www.w3.org/2000/svg" xmlns:xlink="http://www.w3.org/1999/xlink">
    <!-- Generator: Sketch 50 (54983) - http://www.bohemiancoding.com/sketch -->
    <title>tag /favorite-lock</title>
    <desc>Created with Sketch.</desc>
    <defs></defs>
    <g id="tag-/favorite-lock" stroke="none" stroke-width="1" fill="none" fill-rule="evenodd">
        <circle id="Oval-2" fill="#DCDCDC" cx="10" cy="10" r="10"></circle>
        <path d="M10.57125,4.3715 L11.923,7.1105 C12.017,7.301 12.19875,7.433 12.409,7.4635 L15.43175,7.90275 C15.96125,7.97975 16.1725,8.63025 15.7895,9.0035 L13.60225,11.1355 C13.45025,11.28375 13.38075,11.4975 13.41675,11.70675 L13.933,14.71725 C14.0235,15.2445 13.47,15.6465 12.9965,15.39775 L10.293,13.9765 C10.105,13.87775 9.88025,13.87775 9.69225,13.9765 L6.98875,15.39775 C6.51525,15.64675 5.96175,15.2445 6.05225,14.71725 L6.5685,11.70675 C6.6045,11.4975 6.535,11.28375 6.383,11.1355 L4.19575,9.0035 C3.81275,8.63 4.024,7.9795 4.5535,7.90275 L7.57625,7.4635 C7.7865,7.433 7.96825,7.301 8.06225,7.1105 L9.414,4.3715 C9.6505,3.89175 10.3345,3.89175 10.57125,4.3715 Z" id="Shape" fill="#FFFFFF" fill-rule="nonzero"></path>
    </g>
</svg>