<?xml version="1.0" encoding="UTF-8"?>
<svg width="100px" height="100px" viewBox="0 0 100 100" version="1.1" xmlns="http://www.w3.org/2000/svg" xmlns:xlink="http://www.w3.org/1999/xlink">
    <!-- Generator: Sketch 49.1 (51147) - http://www.bohemiancoding.com/sketch -->
    <title>Github</title>
    <desc>Created with Sketch.</desc>
    <defs></defs>
    <g id="Github" stroke="none" stroke-width="1" fill="none" fill-rule="evenodd">
        <path d="M93.2928359,25.9022908 C88.8216972,18.2415208 82.756883,12.1764786 75.0967971,7.70579597 C67.4355712,3.23488528 59.0717963,1 49.9995439,1 C40.9284317,1 32.5619205,3.23556936 24.9022908,7.70579597 C17.2415208,12.1762506 11.1769347,18.2415208 6.70579597,25.9022908 C2.23534133,33.5628326 0,41.9282037 0,50.9981758 C0,61.89327 3.17868593,71.6904179 9.53765397,80.3921276 C15.8959379,89.0945214 24.1098995,95.1162387 34.1788547,98.4579634 C35.3509096,98.6755004 36.2185495,98.5224948 36.7826864,98.002823 C37.3470514,97.4824671 37.6288918,96.830768 37.6288918,96.0504622 C37.6288918,95.9202592 37.6177186,94.7488884 37.5960561,92.5349815 C37.5737095,90.3210746 37.5632203,88.3896923 37.5632203,86.7417466 L36.0657719,87.0007844 C35.111026,87.1756805 33.9065913,87.2497891 32.4524679,87.2288107 C30.9990286,87.2085163 29.4901789,87.0561948 27.9279711,86.7729862 C26.3650791,86.4922859 24.9114118,85.8412709 23.5658289,84.8213095 C22.2209301,83.8013481 21.2661842,82.4662544 20.7018192,80.8180807 L20.0508042,79.3199482 C19.6168703,78.3225614 18.9337036,77.2145818 18.0003922,76.000114 C17.0670808,74.7845061 16.1232801,73.9604192 15.1685342,73.5264852 L14.7127097,73.2001797 C14.4089788,72.9833267 14.1271383,72.7217806 13.8665043,72.4182777 C13.6060983,72.1147747 13.4111359,71.8110438 13.2809329,71.5068567 C13.1505019,71.2024417 13.2585863,70.952753 13.6063264,70.7568784 C13.9540664,70.5610039 14.5825067,70.4659169 15.4943837,70.4659169 L16.7959576,70.6604233 C17.6640535,70.8344073 18.7378291,71.3540792 20.0186525,72.2226311 C21.2987919,73.0904991 22.3511331,74.2187729 23.175904,75.6069968 C24.174659,77.3869697 25.3779535,78.7432698 26.789208,79.6765812 C28.1993223,80.6098927 29.621066,81.0757503 31.0530708,81.0757503 C32.4850757,81.0757503 33.7218901,80.9672098 34.76397,80.751269 C35.8049099,80.534188 36.7815463,80.2078824 37.6934233,79.7741765 C38.0840322,76.8650176 39.1475467,74.6301323 40.8830545,73.0679245 C38.4094257,72.8079745 36.1854857,72.4164535 34.2100943,71.8958695 C32.235843,71.3746015 30.1956921,70.5286241 28.0910098,69.3556571 C25.9851874,68.1842863 24.2382783,66.7297068 22.8498265,64.994427 C21.4611466,63.2582352 20.3214714,60.9788848 19.4323971,58.1584281 C18.5428667,55.3368313 18.0979874,52.0819846 18.0979874,48.3929759 C18.0979874,43.1403912 19.8127448,38.6706206 23.2415756,34.9811559 C21.6353587,31.0321973 21.7869961,26.6052957 23.696944,21.7009071 C24.9556489,21.3098421 26.8222718,21.6033119 29.2959005,22.5794922 C31.7699854,23.5561287 33.5814259,24.392757 34.7320464,25.0864128 C35.8826668,25.7798407 36.8045769,26.3674643 37.4991449,26.8440392 C41.5363497,25.7159933 45.7026173,25.1518564 49.9990879,25.1518564 C54.2955585,25.1518564 58.4627382,25.7159933 62.500171,26.8440392 L64.9740278,25.2822874 C66.6657546,24.2402074 68.6634925,23.2852335 70.9624532,22.4171375 C73.262782,21.5494977 75.0217765,21.3105261 76.2376125,21.7015912 C78.1899732,26.6062078 78.3639573,31.0328814 76.7572843,34.98184 C80.185887,38.6713047 81.9013285,43.1422154 81.9013285,48.39366 C81.9013285,52.0826686 81.4548531,55.3477765 80.5666908,58.1910358 C79.6773885,61.0347512 78.5279081,63.3118213 77.1177938,65.0270348 C75.7060833,66.7420202 73.9480009,68.1851984 71.8433186,69.3563412 C69.7381803,70.5283961 67.6973453,71.3743735 65.723094,71.8956415 C63.7479307,72.4169095 61.5239906,72.8086586 59.0503619,73.0690646 C61.3064536,75.0214253 62.4347275,78.1032001 62.4347275,82.3130208 L62.4347275,96.048638 C62.4347275,96.8289438 62.7060787,97.4804148 63.2492373,98.0009988 C63.7917117,98.5206706 64.6484063,98.6736762 65.8204613,98.4559111 C75.8907845,95.1146425 84.1047461,89.0926972 90.4628021,80.3903034 C96.8201739,71.6885937 100,61.8914458 100,50.9963516 C99.9977197,41.9275196 97.7612383,33.5628326 93.2928359,25.9022908" id="Fill-29" fill="#000000"></path>
    </g>
</svg>