<svg xmlns="http://www.w3.org/2000/svg" viewBox="0 0 921.72 921.72"><defs><style>.cls-1{fill:#d8d8d8;}.cls-2{fill:#fff;opacity:0.8;}.cls-3{fill:#a0a0a0;}.cls-4{fill:#bababa;}</style></defs><title>no-img</title><g id="Layer_2" data-name="Layer 2"><g id="Capa_1" data-name="Capa 1"><circle class="cls-1" cx="460.86" cy="460.86" r="460.86"/><circle class="cls-2" cx="460.86" cy="460.86" r="403.94"/><path class="cls-3" d="M460.86,56.92A402.74,402.74,0,0,0,171,179.59a402.6,402.6,0,0,1,281.27-114c223.09,0,403.94,180.85,403.94,403.94a402.6,402.6,0,0,1-114,281.27A402.74,402.74,0,0,0,864.8,460.86C864.8,237.77,683.95,56.92,460.86,56.92Z"/><path class="cls-4" d="M460.86,864.8A402.74,402.74,0,0,0,750.77,742.13a402.6,402.6,0,0,1-281.27,114c-223.09,0-403.94-180.85-403.94-403.94A402.6,402.6,0,0,1,179.59,171,402.74,402.74,0,0,0,56.92,460.86C56.92,683.95,237.77,864.8,460.86,864.8Z"/><path class="cls-4" d="M686.91,636l-165-165a46.22,46.22,0,0,0-4.9-4.22L546.24,436a59,59,0,0,0,4.21-4.71,108.75,108.75,0,0,0,146.94-111.1,9.39,9.39,0,0,0-16-5.84l-52.88,52.88L575,353.78,559.8,298.55l52.87-52.87a9.39,9.39,0,0,0-5.84-16A108.75,108.75,0,0,0,495.72,376.56c-1.59,1.34-3.17,2.77-4.72,4.3l-43,41.31-79-79a29,29,0,0,0-3.12-2.68c.93-1.63,1.83-3.3,2.67-5,16.68,3.21,47.18-29.27,73.08-55.16l-75.45-75.46C332.43,238.6,307.8,261.25,311,277.93c-7.71,3.77-14.59,8.38-19.48,13.27l-10.63,10.63a44.86,44.86,0,0,0-12.55,24.46c-1,1.18-2.08,2.42-3.12,3.74l-4,5c-.11.12-.45.61-.55.74l-3.59,5c-2.25,3-4.21,6.25-6.11,9.39q-1.05,1.75-2.14,3.5c-.12.2-.23.4-.33.6l-1.6,3c-1.93,3.62-3.93,7.36-5.64,11.48l-.28.66a124.78,124.78,0,0,0-5.57,15l-.71,2.28c-.58,1.87-1.17,3.74-1.71,6l-1.47,7.26a83.21,83.21,0,0,0-1.78,13l-.21,2.61a64.65,64.65,0,0,0-.24,11.42c0,1.15.09,2.27.13,3.79,0,.63,0,1.25.06,1.85a36.85,36.85,0,0,0,.37,5.09l.92,5.89c.2,1.14.36,2.25.52,3.31a49.79,49.79,0,0,0,1.43,7.22l3.86,13.39a9,9,0,0,0,17.59-1.24l2-13.62a37.16,37.16,0,0,1,1.09-4.34c.34-1.16.67-2.35.93-3.36l1.42-5.08a14.17,14.17,0,0,1,.8-2c.28-.64.57-1.29.82-1.94.48-1.08.93-2.16,1.37-3.27a37.63,37.63,0,0,1,3-6.23c.55-.93,1.06-1.85,1.58-2.79a46.28,46.28,0,0,1,4.06-6.44c.09-.11.18-.23.28-.36l3.36-4.63c.69-.87,1.46-1.69,2.21-2.52.53-.58,1.07-1.17,1.74-1.94a66.92,66.92,0,0,1,6.56-6.51l1.2-1.08c1.66-1.55,3.59-3,5.62-4.54l2.44-1.84c1-.66,2-1.33,3-2a52.51,52.51,0,0,1,5.24-3.25l4-2.26,4-2c1.4-.73,2.79-1.28,4.06-1.8.76-.31,1.5-.62,2.2-.92s1.39-.51,2-.75a26.58,26.58,0,0,1,2.62-.88l1.09-.24a29.51,29.51,0,0,0,4.24,5.4l78.13,78.13L238.49,623.4l-.19.19c-20.75,20.75-24.13,51.15-3.38,71.91s49.22,15.43,70-5.31l.25-.26L452.29,535c.86,1,1.72,2,2.68,3l165,165a47.35,47.35,0,0,0,67-67Zm-403.55,37a19.57,19.57,0,1,1,0-27.68A19.57,19.57,0,0,1,283.37,673.07Z"/><path class="cls-1" d="M546.24,436a59,59,0,0,0,4.21-4.71,108.75,108.75,0,0,0,146.94-111.1,9.39,9.39,0,0,0-16-5.84l-52.88,52.88L575,353.78,559.8,298.55l52.87-52.87a9.39,9.39,0,0,0-5.84-16A108.75,108.75,0,0,0,495.72,376.56c-1.59,1.34-3.17,2.77-4.72,4.3L238.49,623.4l-.19.19c-20.75,20.75-24.13,51.15-3.38,71.91s49.22,15.43,70-5.31l.25-.26Zm-262.87,237a19.57,19.57,0,1,1,0-27.68A19.57,19.57,0,0,1,283.37,673.07Z"/></g></g></svg>